<svg xmlns="http://www.w3.org/2000/svg" viewBox="0 0 32 32">
  <path d="M27.6 12.6 23 11.2l1.8-7c0-.2 0-.6-.2-.8-.2-.2-.4-.4-.6-.4l-4.4-1.2h-.8c-.2.4-.4.6-.4.8l-2 6.8L11.2 8h-.8c-.2 0-.4.6-.4.8l-2.8 10C6.6 21.4 4 24 4 24c-.2.2-.4.6-.2 1 0 .4.4.6.8.8L21 30.2h.2c.2 0 .6-.2.8-.4.2-.2 2.6-2.8 3.6-5.6 1-2.6 2.8-10.2 2.8-10.4 0-.6-.4-1-.8-1.2zm-4 10.8c-.8 1.8-2.2 3.6-2.8 4.6l-2.2-.6c1-1.2 2.2-3 2.8-5 .2-.6-.2-1-.8-1.2-.6-.2-1 .2-1.2.8-.6 2.2-2.4 4.2-3 4.8l-1.8-.4c1-1.2 2.2-3 2.6-4.8.2-.6-.2-1-.8-1.2-.6-.2-1 .2-1.2.8-.6 2-2.2 4-2.8 4.8l-2-.6c1-1.2 2.2-3 2.8-4.8.2-.6-.2-1-.8-1.2-.4-.4-1 0-1 .4-.6 2-2.2 4-3 4.8L6.6 24c1-1.2 2.2-3 2.6-4.8l2.4-9.2 5.2 1.4h.8c.2 0 .4-.2.6-.4L20 4l2.6.6-1.8 7c-.2.6.2 1 .6 1.2l4.6 1.4c-.4 2.2-1.6 7.4-2.4 9.2z"/>
  <path d="M11.4 14.8c0 .6.2 1 .8 1.2l10.6 3h.2c.4 0 .8-.2 1-.8.2-.6-.2-1-.6-1.2l-10.6-3c-.6 0-1.2.2-1.4.8z"/>
</svg>
