<svg xmlns="http://www.w3.org/2000/svg" viewBox="0 0 80 60">
  <path d="M22.889 57.107A3.02 3.02 0 0 0 25.906 60h28.189a3.02 3.02 0 0 0 3.016-2.893l2.013-42.497H20.876l2.013 42.497zm23.488-31.941c0-.678.549-1.227 1.226-1.227h1.962c.677 0 1.226.55 1.226 1.227v24.279c0 .677-.549 1.226-1.226 1.226h-1.962a1.226 1.226 0 0 1-1.226-1.226v-24.28zm-8.584 0c0-.678.55-1.227 1.226-1.227h1.962c.677 0 1.226.55 1.226 1.227v24.279a1.226 1.226 0 0 1-1.226 1.226h-1.962a1.226 1.226 0 0 1-1.226-1.226v-24.28zm-8.584 0c0-.678.549-1.227 1.226-1.227h1.962c.677 0 1.226.55 1.226 1.227v24.279c0 .677-.549 1.226-1.226 1.226h-1.962a1.226 1.226 0 0 1-1.226-1.226v-24.28zM60.465 3.09H47.46V.632A.632.632 0 0 0 46.828 0H33.172a.632.632 0 0 0-.632.632v2.459H19.535a1.895 1.895 0 0 0-1.895 1.895v5.953h44.72V4.986a1.895 1.895 0 0 0-1.895-1.895z"/>
</svg>
